#!OML:ASF F:\VICON\USERDATA\INSTALL\rory3\rory3.ASF
:FULLY-SPECIFIED
:DEGREES
368
root 4.26281 18.0551 13.934 236.673 85.2324 239.133
lowerback 10.7659 0.448529 0.956261
upperback 0.112176 0.866666 1.85879
thorax -5.94385 0.441347 1.27153
lowerneck -19.2869 -5.6064 -11.2469
upperneck 29.8016 -6.35664 7.88149
head 14.0523 -2.78236 4.01552
rclavicle 8.34896e-015 -6.18717e-015
rhumerus -34.1039 -15.6347 -78.2475
rradius 26.8947
rwrist 8.90907
rhand -15.414 10.363
rfingers 7.12502
rthumb 10.7654 -19.3411
lclavicle 8.34896e-015 -6.18717e-015
lhumerus -34.4943 -0.304582 86.5127
lradius 32.3994
lwrist -9.70879
lhand -16.5597 27.71
lfingers 7.12502
lthumb 9.6602 57.4685
rfemur -4.63721 1.50725 28.5224
rtibia 21.6242
rfoot -11.7325 -0.322007
rtoes 16.6169
lfemur -15.5965 -0.231504 -15.6843
ltibia 59.1611
lfoot -1.27936 -6.82314
ltoes -2.43308
369
root 4.39513 18.0335 13.9299 238.556 85.0605 241.043
lowerback 10.8038 0.53352 1.19969
upperback 0.0898413 1.01509 1.89813
thorax -5.98789 0.508143 1.15187
lowerneck -19.2521 -5.6689 -11.482
upperneck 29.9289 -6.40344 7.98989
head 14.1224 -2.81386 4.09822
rclavicle 9.57428e-016 -5.87657e-015
rhumerus -33.5633 -15.3439 -78.3811
rradius 26.947
rwrist 9.01348
rhand -15.7139 10.2252
rfingers 7.12502
rthumb 10.4762 -19.4937
lclavicle 9.57428e-016 -5.87657e-015
lhumerus -34.7116 -0.270576 86.4883
lradius 32.371
lwrist -8.75218
lhand -17.6736 27.5758
lfingers 7.12502
lthumb 8.58531 57.3813
rfemur -4.30599 1.4459 28.7914
rtibia 22.0131
rfoot -12.4564 -0.276945
rtoes 16.8648
lfemur -16.5587 -0.2476 -15.4935
ltibia 58.588
lfoot -2.63756 -5.94954
ltoes -3.82002
370
root 4.52749 18.007 13.9175 239.372 84.9715 241.948
lowerback 10.9017 0.608726 1.42799
upperback 0.100464 1.1446 1.86237
thorax -6.02831 0.564619 0.96429
lowerneck -19.2429 -5.70408 -11.47
upperneck 29.9686 -6.42899 7.90067
head 14.1373 -2.83503 4.05587
rclavicle -9.20291e-015 9.62397e-015
rhumerus -32.9896 -14.9836 -78.6349
rradius 27.0193
rwrist 8.8154
rhand -15.5388 10.3423
rfingers 7.12502
rthumb 10.645 -19.3681
lclavicle -9.20291e-015 9.62397e-015
lhumerus -34.8335 0.0903618 86.2711
lradius 32.2921
lwrist -8.17395
lhand -18.6301 27.7374
lfingers 7.12502
lthumb 7.66215 57.5786
rfemur -3.91446 1.41124 28.8958
rtibia 22.3087
rfoot -12.8984 -0.185302
rtoes 15.1504
lfemur -17.4209 -0.377564 -15.4627
ltibia 57.881
lfoot -3.90911 -5.02205
ltoes -4.39683
371
root 4.66423 17.9923 13.9007 240.26 85.1408 243.012
lowerback 11.0545 0.742519 1.47235
upperback 0.155711 1.32291 1.73934
thorax -6.05318 0.64871 0.780121
lowerneck -19.1586 -5.73284 -11.413
upperneck 29.9183 -6.45936 7.78652
head 14.0936 -2.85817 3.99154
rclavicle -9.97884e-015 4.01297e-015
rhumerus -32.4378 -14.5432 -78.9447
rradius 27.1613
rwrist 8.45394
rhand -15.295 10.42
rfingers 7.12502
rthumb 10.8803 -19.2782
lclavicle -9.97884e-015 4.01297e-015
lhumerus -34.9992 0.220287 86.0638
lradius 32.3597
lwrist -7.52556
lhand -18.8787 28.2689
lfingers 7.12502
lthumb 7.42227 58.1187
rfemur -3.23488 1.18743 28.7196
rtibia 22.4078
rfoot -13.2531 0.165423
rtoes 12.8564
lfemur -18.0938 -0.450926 -15.6759
ltibia 57.0502
lfoot -5.05086 -4.14077
ltoes -4.78063
372
root 4.79958 17.9765 13.8891 243.681 85.0143 246.376
lowerback 10.9963 0.872737 1.87149
upperback 0.131819 1.54298 1.69595
thorax -6.03516 0.744364 0.475359
lowerneck -19.059 -5.73255 -11.4947
upperneck 29.861 -6.46164 7.85958
head 14.054 -2.85977 4.03446
rclavicle -1.42985e-014 -2.77305e-014
rhumerus -32.007 -13.883 -79.2858
rradius 27.5064
rwrist 7.86115
rhand -15.4586 10.1792
rfingers 7.12502
rthumb 10.7224 -19.5272
lclavicle -1.42985e-014 -2.77305e-014
lhumerus -35.1829 0.475927 85.86
lradius 32.3802
lwrist -7.39732
lhand -19.194 28.7424
lfingers 7.12502
lthumb 7.11787 58.6027
rfemur -2.87163 1.11149 28.962
rtibia 22.5733
rfoot -13.7031 0.36257
rtoes 10.8792
lfemur -18.9778 -0.380544 -15.4323
ltibia 56.0284
lfoot -5.91462 -3.35867
ltoes -5.40538
373
root 4.93124 17.9547 13.8834 249.308 84.167 251.604
lowerback 10.6313 0.945945 2.97612
upperback 0.00727772 1.77867 1.81737
thorax -5.93217 0.831196 -0.0495348
lowerneck -19.1712 -5.80753 -11.5721
upperneck 30.0022 -6.59301 8.03717
head 14.1687 -2.89794 4.10223
rclavicle -2.51276e-014 -1.8487e-014
rhumerus -31.5776 -13.3652 -79.6558
rradius 27.9167
rwrist 7.20448
rhand -15.3387 10.1312
rfingers 7.12502
rthumb 10.838 -19.5691
lclavicle -2.51276e-014 -1.8487e-014
lhumerus -35.3191 0.874341 85.5618
lradius 32.3284
lwrist -7.33796
lhand -19.4597 28.5678
lfingers 7.12502
lthumb 6.86137 58.4366
rfemur -2.79192 1.22999 30.0455
rtibia 22.4609
rfoot -14.0683 0.43193
rtoes 10.2888
lfemur -20.349 -0.0137843 -14.2998
ltibia 55.037
lfoot -6.58075 -2.80501
ltoes -7.13767
374
root 5.06163 17.9417 13.8832 246.193 85.1334 248.599
lowerback 10.8878 1.10523 1.89728
upperback 0.00847713 1.83752 1.49672
thorax -6.09546 0.881932 0.206359
lowerneck -19.2771 -5.87347 -11.5869
upperneck 30.1914 -6.6769 8.04273
head 14.2878 -2.93166 4.09829
rclavicle 3.1526e-014 7.85199e-015
rhumerus -31.1302 -13.105 -79.8668
rradius 28.174
rwrist 7.04487
rhand -14.9918 10.3596
rfingers 7.12502
rthumb 11.1727 -19.323
lclavicle 3.1526e-014 7.85199e-015
lhumerus -35.4986 1.43077 85.1961
lradius 32.2547
lwrist -7.37446
lhand -19.6043 28.0654
lfingers 7.12502
lthumb 6.72179 57.9387
rfemur -2.13413 1.57412 29.0217
rtibia 22.4452
rfoot -14.4507 0.229435
rtoes 10.2977
lfemur -20.8456 0.20847 -15.4249
ltibia 53.583
lfoot -7.0029 -2.04502
ltoes -8.05018
375
root 5.19274 17.9268 13.8702 254.206 83.8981 256.154
lowerback 10.5147 1.14971 3.35147
upperback -0.146578 2.09499 1.82205
thorax -6.00986 0.972582 -0.302464
lowerneck -19.3088 -5.86554 -11.5735
upperneck 30.178 -6.63588 7.95257
head 14.279 -2.92463 4.06487
rclavicle -6.95746e-016 3.97569e-016
rhumerus -30.6614 -12.8352 -80.0029
rradius 28.43
rwrist 7.09018
rhand -14.8457 10.4179
rfingers 7.12502
rthumb 11.3136 -19.257
lclavicle -6.95746e-016 3.97569e-016
lhumerus -35.6691 1.71397 84.939
lradius 32.2602
lwrist -7.14525
lhand -19.8476 28.189
lfingers 7.12502
lthumb 6.48697 58.0696
rfemur -2.14566 1.73324 30.5498
rtibia 22.4175
rfoot -14.6318 0.354154
rtoes 10.016
lfemur -22.0869 0.590023 -13.8226
ltibia 52.1327
lfoot -7.30314 -1.4189
ltoes -7.39886
376
root 5.32814 17.9295 13.8662 249.817 85.1297 252.053
lowerback 10.9427 1.33681 2.07719
upperback -0.0812934 2.16325 1.38788
thorax -6.20769 1.03195 -0.0629104
lowerneck -19.2825 -5.90881 -11.5862
upperneck 30.0987 -6.69418 7.94539
head 14.2462 -2.95302 4.04989
rclavicle -8.97016e-015 6.55989e-015
rhumerus -30.2736 -12.4501 -80.2415
rradius 28.7828
rwrist 6.72562
rhand -15.1991 10.4679
rfingers 7.12502
rthumb 10.9727 -19.2253
lclavicle -8.97016e-015 6.55989e-015
lhumerus -35.8436 1.45471 84.822
lradius 32.2981
lwrist -6.57478
lhand -20.3517 28.7326
lfingers 7.12502
lthumb 6.00031 58.6276
rfemur -1.32326 1.79788 29.1998
rtibia 22.5014
rfoot -15.0106 0.262979
rtoes 10.0502
lfemur -22.1009 0.156481 -15.2793
ltibia 50.1462
lfoot -7.58481 -0.134915
ltoes -5.78439
377
root 5.46335 17.9269 13.8593 245.429 86.0498 247.827
lowerback 11.1983 1.53387 1.21308
upperback -0.0198634 2.29102 1.01967
thorax -6.3024 1.11278 0.00969839
lowerneck -19.3139 -6.00669 -11.7038
upperneck 30.0703 -6.80262 7.97324
head 14.2622 -3.0096 4.05947
rclavicle -2.75379e-014 -1.98785e-016
rhumerus -29.8814 -11.909 -80.5052
rradius 29.2284
rwrist 6.15172
rhand -15.7228 10.1945
rfingers 7.12502
rthumb 10.4676 -19.5249
lclavicle -2.75379e-014 -1.98785e-016
lhumerus -35.8833 1.26053 84.6604
lradius 32.1933
lwrist -6.35631
lhand -20.2603 28.8575
lfingers 7.12502
lthumb 6.08849 58.75
rfemur -0.482821 2.06991 28.1909
rtibia 22.1905
rfoot -15.2762 0.12288
rtoes 12.2024
lfemur -22.2749 -0.297373 -16.3781
ltibia 48.2312
lfoot -8.01841 1.14119
ltoes -4.03919
378
root 5.60137 17.9207 13.8513 247.306 86.1145 249.571
lowerback 11.0184 1.67457 1.32403
upperback 0.0360168 2.4793 0.895385
thorax -6.13043 1.20132 -0.206678
lowerneck -19.4772 -6.06487 -11.7025
upperneck 30.0264 -6.87041 7.96485
head 14.2871 -3.0384 4.03886
rclavicle 1.41758e-014 -6.95746e-015
rhumerus -29.3834 -11.6151 -80.7337
rradius 29.6362
rwrist 5.92976
rhand -15.793 10.0736
rfingers 7.12502
rthumb 10.3998 -19.6492
lclavicle 1.41758e-014 -6.95746e-015
lhumerus -35.781 1.41321 84.3825
lradius 31.9843
lwrist -6.51044
lhand -20.2486 28.5075
lfingers 7.12502
lthumb 6.09985 58.3997
rfemur 0.0385544 2.46072 28.2295
rtibia 21.8805
rfoot -15.5103 -0.0257319
rtoes 14.7578
lfemur -22.7492 -0.458991 -16.3978
ltibia 46.2174
lfoot -8.31593 2.27756
ltoes -4.55865
